<svg xmlns="http://www.w3.org/2000/svg" width="26" height="498" viewBox="0 0 26 498"><svg xmlns:xlink="http://www.w3.org/1999/xlink" height="22" width="25" viewBox="0 0 25 22"><title>favorite-hover</title><path d="M12.424 21.255c-2.704-2.394-5.377-4.642-7.912-7.046a11.23 11.23 0 0 1-3.304-5.873C.36 4.375 3.173.818 7.108.926c2.294.065 4.07 1.15 5.401 3.286C13.84 2.077 15.616.991 17.91.927c3.935-.11 6.747 3.448 5.9 7.41a11.23 11.23 0 0 1-3.304 5.872c-2.535 2.404-5.208 4.652-7.912 7.046" stroke="#D8D8D8" fill="#EFEFF4" stroke-linejoin="round" fill-rule="evenodd" stroke-linecap="round"/></svg><svg xmlns:xlink="http://www.w3.org/1999/xlink" height="22" width="25" viewBox="0 0 25 22" y="22"><title>favorite copy 2</title><path d="M12.524 21.255c-2.704-2.394-5.378-4.642-7.912-7.046a11.23 11.23 0 0 1-3.304-5.873C.46 4.375 3.273.818 7.208.926c2.293.065 4.07 1.15 5.401 3.286C13.94 2.077 15.716.991 18.01.927c3.935-.11 6.747 3.448 5.9 7.41a11.23 11.23 0 0 1-3.304 5.872c-2.535 2.404-5.208 4.652-7.912 7.046" stroke="#D8D8D8" fill="#F7F7F8" stroke-linejoin="round" fill-rule="evenodd" stroke-linecap="round"/></svg><svg xmlns:xlink="http://www.w3.org/1999/xlink" height="18" width="20" viewBox="0 0 20 18" y="44"><title>favorite</title><path d="M10.123 17.39c-2.14-1.958-4.257-3.798-6.264-5.765a9.266 9.266 0 0 1-2.615-4.804C.574 3.579 2.799.669 5.914.758c1.816.053 3.223.941 4.277 2.689C11.244 1.699 12.65.81 14.467.758c3.115-.089 5.34 2.821 4.67 6.063a9.259 9.259 0 0 1-2.616 4.804c-2.006 1.967-4.123 3.807-6.264 5.765" stroke="#5AB8F8" stroke-width=".96" fill="#D9F5FF" stroke-linejoin="round" fill-rule="evenodd" stroke-linecap="round"/></svg><svg xmlns:xlink="http://www.w3.org/1999/xlink" height="22" width="24" viewBox="0 0 24 22" y="62"><title>favorite-bts-row</title><path d="M11.606 21.075c-2.704-2.394-5.378-4.642-7.912-7.046A11.23 11.23 0 0 1 .39 8.156C-.457 4.195 2.355.638 6.29.746c2.294.065 4.07 1.15 5.401 3.287C13.022 1.897 14.798.81 17.092.747c3.935-.11 6.747 3.448 5.9 7.41a11.23 11.23 0 0 1-3.304 5.872c-2.535 2.404-5.208 4.652-7.912 7.046" fill="#5AB8F8" fill-rule="evenodd"/></svg><svg xmlns:xlink="http://www.w3.org/1999/xlink" height="22" width="25" viewBox="0 0 25 22" y="84"><title>favorite-hollow-hover</title><path d="M12.424 21.255c-2.704-2.394-5.377-4.642-7.912-7.046a11.23 11.23 0 0 1-3.304-5.873C.36 4.375 3.173.818 7.108.926c2.294.065 4.07 1.15 5.401 3.286C13.84 2.077 15.616.991 17.91.927c3.935-.11 6.747 3.448 5.9 7.41a11.23 11.23 0 0 1-3.304 5.872c-2.535 2.404-5.208 4.652-7.912 7.046" stroke="#fff" stroke-width="1.5" fill="#F1F1F4" stroke-linejoin="round" fill-rule="evenodd" fill-opacity=".3" stroke-linecap="round"/></svg><svg xmlns:xlink="http://www.w3.org/1999/xlink" height="22" width="25" viewBox="0 0 25 22" y="106"><title>favorite</title><path d="M12.524 21.255c-2.704-2.394-5.378-4.642-7.912-7.046a11.23 11.23 0 0 1-3.304-5.873C.46 4.375 3.273.818 7.208.926c2.293.065 4.07 1.15 5.401 3.286C13.94 2.077 15.716.991 18.01.927c3.935-.11 6.747 3.448 5.9 7.41a11.23 11.23 0 0 1-3.304 5.872c-2.535 2.404-5.208 4.652-7.912 7.046" stroke="#fff" stroke-width="1.5" stroke-linejoin="round" fill-rule="evenodd" stroke-linecap="round" fill="none"/></svg><svg xmlns:xlink="http://www.w3.org/1999/xlink" height="22" width="25" viewBox="0 0 25 22" y="128"><title>favorite-bts-row</title><path d="M12.524 21.255c-2.704-2.394-5.378-4.642-7.912-7.046a11.23 11.23 0 0 1-3.304-5.873C.46 4.375 3.273.818 7.208.926c2.293.065 4.07 1.15 5.401 3.286C13.94 2.077 15.716.991 18.01.927c3.935-.11 6.747 3.448 5.9 7.41a11.23 11.23 0 0 1-3.304 5.872c-2.535 2.404-5.208 4.652-7.912 7.046" stroke="#888699" stroke-width=".96" fill="#F7F7F8" stroke-linejoin="round" fill-rule="evenodd" stroke-linecap="round"/></svg><svg xmlns:xlink="http://www.w3.org/1999/xlink" height="18" width="19" viewBox="0 0 19 18" y="150"><title>favorite</title><path d="M9.123 17.39c-2.14-1.958-4.257-3.798-6.264-5.765A9.266 9.266 0 0 1 .244 6.821C-.426 3.579 1.799.669 4.914.758 6.73.811 8.137 1.7 9.191 3.447 10.244 1.699 11.65.81 13.467.758c3.115-.089 5.34 2.821 4.67 6.063a9.259 9.259 0 0 1-2.616 4.804c-2.006 1.967-4.123 3.807-6.264 5.765" fill="#fff" fill-rule="evenodd"/></svg><svg xmlns:xlink="http://www.w3.org/1999/xlink" height="22" width="24" viewBox="0 0 24 22" y="168"><title>favorited</title><path d="M11.524 21.255c-2.704-2.394-5.378-4.642-7.912-7.046A11.23 11.23 0 0 1 .308 8.336C-.54 4.375 2.273.818 6.208.926c2.293.065 4.07 1.15 5.401 3.286C12.94 2.077 14.716.991 17.01.927c3.935-.11 6.747 3.448 5.9 7.41a11.23 11.23 0 0 1-3.304 5.872c-2.535 2.404-5.208 4.652-7.912 7.046" fill="#E53343" fill-rule="evenodd"/></svg><svg xmlns:xlink="http://www.w3.org/1999/xlink" height="22" width="24" viewBox="0 0 24 22" y="190"><title>favorite copy 3@2x</title><path d="M11.524 21.255c-2.704-2.394-5.378-4.642-7.912-7.046A11.23 11.23 0 0 1 .308 8.336C-.54 4.375 2.273.818 6.208.926c2.293.065 4.07 1.15 5.401 3.286C12.94 2.077 14.716.991 17.01.927c3.935-.11 6.747 3.448 5.9 7.41a11.23 11.23 0 0 1-3.304 5.872c-2.535 2.404-5.208 4.652-7.912 7.046" fill="#EF5062" fill-rule="evenodd"/></svg><svg xmlns:xlink="http://www.w3.org/1999/xlink" height="16" width="20" viewBox="0 0 20 16" y="212"><title>full</title><rect rx="1" height="16" width="20" y="6" x="91" transform="translate(-91 -6)" fill="#5AB8F8" fill-rule="evenodd"/></svg><svg xmlns:xlink="http://www.w3.org/1999/xlink" height="15" width="20" viewBox="0 0 20 15" y="228"><title>list-2</title><g fill="#5AB8F8" fill-rule="evenodd"><path d="M4.799 2.75H18.7c.303 0 .549-.448.549-1s-.246-1-.55-1H4.8c-.303 0-.55.448-.55 1s.247 1 .55 1zM4.799 8.75H18.7c.303 0 .549-.448.549-1s-.246-1-.55-1H4.8c-.303 0-.55.448-.55 1s.247 1 .55 1zM4.799 14.75H18.7c.303 0 .549-.448.549-1s-.246-1-.55-1H4.8c-.303 0-.55.448-.55 1s.247 1 .55 1z"/><circle cy="13.75" cx="1.75" r="1"/><circle cy="7.75" cx="1.75" r="1"/><circle cy="1.75" cx="1.75" r="1"/></g></svg><svg xmlns:xlink="http://www.w3.org/1999/xlink" height="19" width="24" viewBox="0 0 24 19" y="243"><title>mail</title><g fill-rule="evenodd" fill="none"><path fill="#EFEFF4" d="M13.069 9.863l8.518-8.855c-.029 0-.056-.008-.085-.008H2.5c-.03 0-.057.007-.086.008l8.517 8.855a1.502 1.502 0 0 0 2.138 0"/><path fill="#EFEFF4" d="M22.561 1.439l-8.771 9.118a2.468 2.468 0 0 1-3.579 0l-8.77-9.118A1.497 1.497 0 0 0 1 2.499v14c0 .828.673 1.5 1.5 1.5h19.002c.827 0 1.5-.672 1.5-1.5v-14c0-.413-.169-.788-.441-1.06"/><path fill="#D8D8D8" d="M2.5 1h19.002c.029 0 .056.007.085.009l-8.518 8.854a1.5 1.5 0 0 1-2.137 0L2.415 1.009C2.444 1.007 2.471 1 2.5 1zm20.502 15.5c0 .827-.673 1.5-1.5 1.5H2.5c-.827 0-1.5-.673-1.5-1.5v-14c0-.414.169-.789.441-1.061l8.77 9.118a2.467 2.467 0 0 0 3.579 0l8.771-9.118c.272.271.441.647.441 1.061v14zM21.502 0H2.5A2.502 2.502 0 0 0 0 2.5v14C0 17.879 1.121 19 2.5 19h19.002c1.379 0 2.5-1.121 2.5-2.5v-14c0-1.379-1.121-2.5-2.5-2.5z"/></g></svg><svg xmlns:xlink="http://www.w3.org/1999/xlink" height="19" width="24" viewBox="0 0 24 19" y="262"><title>mail 2</title><g fill-rule="evenodd" fill="none"><path fill="#F7F7F9" d="M13.069 9.863l8.518-8.855c-.029 0-.056-.008-.085-.008H2.5c-.03 0-.057.007-.086.008l8.517 8.855a1.502 1.502 0 0 0 2.138 0"/><path fill="#F7F7F9" d="M22.561 1.439l-8.771 9.118a2.468 2.468 0 0 1-3.579 0l-8.77-9.118A1.497 1.497 0 0 0 1 2.499v14c0 .828.673 1.5 1.5 1.5h19.002c.827 0 1.5-.672 1.5-1.5v-14c0-.413-.169-.788-.441-1.06"/><path fill="#D8D8D8" d="M2.5 1h19.002c.029 0 .056.007.085.009l-8.518 8.854a1.5 1.5 0 0 1-2.137 0L2.415 1.009C2.444 1.007 2.471 1 2.5 1zm20.502 15.5c0 .827-.673 1.5-1.5 1.5H2.5c-.827 0-1.5-.673-1.5-1.5v-14c0-.414.169-.789.441-1.061l8.77 9.118a2.467 2.467 0 0 0 3.579 0l8.771-9.118c.272.271.441.647.441 1.061v14zM21.502 0H2.5A2.502 2.502 0 0 0 0 2.5v14C0 17.879 1.121 19 2.5 19h19.002c1.379 0 2.5-1.121 2.5-2.5v-14c0-1.379-1.121-2.5-2.5-2.5z"/></g></svg><svg xmlns:xlink="http://www.w3.org/1999/xlink" height="18" width="22" viewBox="0 0 22 18" y="281"><title></title><path d="M22 5.859v9.748c0 .54-.192 1.003-.577 1.387a1.89 1.89 0 0 1-1.387.577H1.964a1.89 1.89 0 0 1-1.387-.577A1.889 1.889 0 0 1 0 15.607V5.859c.36.401.773.757 1.24 1.068 2.963 2.014 4.997 3.426 6.102 4.236.466.344.845.612 1.135.804.291.192.677.389 1.16.589.483.201.933.301 1.351.301h.024c.418 0 .868-.1 1.351-.301.483-.2.869-.397 1.16-.589.29-.192.669-.46 1.135-.804 1.392-1.007 3.43-2.419 6.114-4.236A6.746 6.746 0 0 0 22 5.859zm0-3.609c0 .647-.201 1.265-.602 1.854s-.9 1.092-1.497 1.51a7297.71 7297.71 0 0 0-5.746 3.99c-.082.057-.256.182-.522.374a13.594 13.594 0 0 1-1.301.866c-.25.147-.485.258-.706.331a1.94 1.94 0 0 1-.614.111h-.024a1.94 1.94 0 0 1-.614-.111 3.705 3.705 0 0 1-.706-.331 13.594 13.594 0 0 1-1.301-.866c-.266-.192-.44-.317-.522-.374a593.433 593.433 0 0 0-3.217-2.241 643.564 643.564 0 0 1-2.516-1.749c-.508-.344-.987-.817-1.437-1.418C.225 3.594 0 3.036 0 2.52 0 1.882.17 1.35.509.924c.34-.425.825-.638 1.455-.638h18.072c.532 0 .992.192 1.381.577.389.384.583.847.583 1.387z" fill="#5AB8F8" fill-rule="evenodd"/></svg><svg xmlns:xlink="http://www.w3.org/1999/xlink" height="20" width="26" viewBox="0 0 26 20" y="299"><title>message-hollow-hover</title><g transform="translate(1 1)" stroke="#fff" stroke-width="1.5" fill="#F1F1F4" stroke-linejoin="round" fill-rule="evenodd" fill-opacity=".3" stroke-linecap="round"><rect rx="1.88" height="18" width="23" x=".5"/><path d="M21.907.25c.548 0 .679.314.286.707l-8.779 8.78a2 2 0 0 1-2.828 0L1.806.956c-.39-.39-.25-.707.287-.707h19.814z"/></g></svg><svg xmlns:xlink="http://www.w3.org/1999/xlink" height="20" width="26" viewBox="0 0 26 20" y="319"><title>mail_clear</title><path d="M1.5 2.875A1.88 1.88 0 0 1 3.382 1h19.236c1.04 0 1.882.844 1.882 1.875v14.25A1.881 1.881 0 0 1 22.618 19H3.382A1.881 1.881 0 0 1 1.5 17.125V2.875zM22.907 1.25c.548 0 .679.314.286.707l-8.779 8.78a2 2 0 0 1-2.828 0l-8.78-8.78c-.39-.39-.25-.707.287-.707h19.814z" stroke="#fff" stroke-width="1.5" fill-rule="evenodd" fill="none"/></svg><svg xmlns:xlink="http://www.w3.org/1999/xlink" height="18" width="22" viewBox="0 0 22 18" y="339"><title></title><path d="M22 5.859v9.748c0 .54-.192 1.003-.577 1.387a1.89 1.89 0 0 1-1.387.577H1.964a1.89 1.89 0 0 1-1.387-.577A1.889 1.889 0 0 1 0 15.607V5.859c.36.401.773.757 1.24 1.068 2.963 2.014 4.997 3.426 6.102 4.236.466.344.845.612 1.135.804.291.192.677.389 1.16.589.483.201.933.301 1.351.301h.024c.418 0 .868-.1 1.351-.301.483-.2.869-.397 1.16-.589.29-.192.669-.46 1.135-.804 1.392-1.007 3.43-2.419 6.114-4.236A6.746 6.746 0 0 0 22 5.859zm0-3.609c0 .647-.201 1.265-.602 1.854s-.9 1.092-1.497 1.51a7297.71 7297.71 0 0 0-5.746 3.99c-.082.057-.256.182-.522.374a13.594 13.594 0 0 1-1.301.866c-.25.147-.485.258-.706.331a1.94 1.94 0 0 1-.614.111h-.024a1.94 1.94 0 0 1-.614-.111 3.705 3.705 0 0 1-.706-.331 13.594 13.594 0 0 1-1.301-.866c-.266-.192-.44-.317-.522-.374a593.433 593.433 0 0 0-3.217-2.241 643.564 643.564 0 0 1-2.516-1.749c-.508-.344-.987-.817-1.437-1.418C.225 3.594 0 3.036 0 2.52 0 1.882.17 1.35.509.924c.34-.425.825-.638 1.455-.638h18.072c.532 0 .992.192 1.381.577.389.384.583.847.583 1.387z" fill="#EF5062" fill-rule="evenodd"/></svg><svg xmlns:xlink="http://www.w3.org/1999/xlink" height="25" width="22" viewBox="0 0 22 25" y="357"><title>hide-hover</title><path d="M17.25 15.748c.822 0 3.75-.511 3.75-3.989V5.565c0-3.478-2.928-3.861-3.75-3.861s1.25.731 1.25 2.886v8.144c0 2.259-2.072 3.014-1.25 3.014m-10.81.122c.165.454-4.425 4.644-1.747 8.039.626.794 2.751-3.802 5.769-5.883C12.126 16.878 16 14.435 16 13.085v-8.74C16 2.719 9.858 1 5.188 1 3.48 1 1 11.957 1 13.698c0 1.747 5.275 1.717 5.44 2.172" stroke="#D8D8D8" fill="#EFEFF4" stroke-linejoin="round" fill-rule="evenodd" stroke-linecap="round"/></svg><svg xmlns:xlink="http://www.w3.org/1999/xlink" height="25" width="22" viewBox="0 0 22 25" y="382"><title>Fill 1 Copy@2x</title><path d="M17.25 15.748c.822 0 3.75-.511 3.75-3.989V5.565c0-3.478-2.928-3.861-3.75-3.861s1.25.731 1.25 2.886v8.144c0 2.259-2.072 3.014-1.25 3.014m-10.81.122c.165.454-4.425 4.644-1.747 8.039.626.794 2.751-3.802 5.769-5.883C12.126 16.878 16 14.435 16 13.085v-8.74C16 2.719 9.858 1 5.188 1 3.48 1 1 11.957 1 13.698c0 1.747 5.275 1.717 5.44 2.172" stroke="#D8D8D8" fill="#F7F7F8" stroke-linejoin="round" fill-rule="evenodd" stroke-linecap="round"/></svg><svg xmlns:xlink="http://www.w3.org/1999/xlink" height="25" width="22" viewBox="0 0 22 25" y="407"><title>hide-hollow-hover</title><path d="M17.25 15.748c.822 0 3.75-.511 3.75-3.989V5.565c0-3.478-2.928-3.861-3.75-3.861s1.25.731 1.25 2.886v8.144c0 2.259-2.072 3.014-1.25 3.014m-10.81.122c.165.454-4.425 4.644-1.747 8.039.626.794 2.751-3.802 5.769-5.883C12.126 16.878 16 14.435 16 13.085v-8.74C16 2.719 9.858 1 5.188 1 3.48 1 1 11.957 1 13.698c0 1.747 5.275 1.717 5.44 2.172" stroke="#fff" stroke-width="1.5" fill="#F1F1F4" stroke-linejoin="round" fill-rule="evenodd" fill-opacity=".3" stroke-linecap="round"/></svg><svg xmlns:xlink="http://www.w3.org/1999/xlink" height="25" width="22" viewBox="0 0 22 25" y="432"><title>thumbs_down_clear</title><path d="M17.25 15.748c.822 0 3.75-.511 3.75-3.989V5.565c0-3.478-2.928-3.861-3.75-3.861s1.25.731 1.25 2.886v8.144c0 2.259-2.072 3.014-1.25 3.014zM4.692 23.909c.627.794 2.751-3.802 5.769-5.883 1.665-1.148 5.538-3.591 5.538-4.941v-8.74C16 2.719 9.859 1 5.189 1 3.478 1 1 11.957 1 13.698c0 1.747 5.275 1.717 5.44 2.172.164.454-4.425 4.644-1.748 8.04z" stroke="#fff" stroke-width="1.5" fill-rule="evenodd" fill="none"/></svg><svg xmlns:xlink="http://www.w3.org/1999/xlink" height="25" width="22" viewBox="0 0 22 25" y="457"><title>thumbs down-bts-row</title><path d="M17.25 15.748c.822 0 3.75-.511 3.75-3.989V5.565c0-3.478-2.928-3.861-3.75-3.861s1.25.731 1.25 2.886v8.144c0 2.259-2.072 3.014-1.25 3.014m-10.81.122c.165.454-4.425 4.644-1.747 8.039.626.794 2.751-3.802 5.769-5.883C12.126 16.878 16 14.435 16 13.085v-8.74C16 2.719 9.858 1 5.188 1 3.48 1 1 11.957 1 13.698c0 1.747 5.275 1.717 5.44 2.172" stroke="#888699" stroke-width=".96" fill="#F7F7F8" stroke-linejoin="round" fill-rule="evenodd" stroke-linecap="round"/></svg><svg xmlns:xlink="http://www.w3.org/1999/xlink" height="16" width="20" viewBox="0 0 20 16" y="482"><title>tile</title><g fill="#5AB8F8" fill-rule="evenodd"><rect rx=".5" height="7" width="9"/><rect rx=".5" height="7" width="9" y="9"/><rect rx=".5" height="7" width="9" x="11"/><rect rx=".5" height="7" width="9" y="9" x="11"/></g></svg></svg>