<svg xmlns="http://www.w3.org/2000/svg" width="78" height="549" viewBox="0 0 78 549"><svg width="57" viewBox="0 0 57 17" height="17"><title>d-detail-airbnb</title><rect width="57" fill="#FF5A5F" rx="8.5" height="17"/><g fill="#FFF"><path d="M17.3 11.9c-.1.6-.4 1.1-1 1.3-.2.1-.5.1-.8.1s-.5-.1-.8-.3c-.4-.2-.8-.5-1.2-1 .7-.9 1.1-1.8 1.3-2.5 0-.3.1-.6 0-.9 0-.3-.1-.5-.3-.8-.3-.5-.9-.7-1.5-.7s-1.2.2-1.5.7c-.2.3-.3.5-.3.8s0 .6.1.9c.1.7.6 1.6 1.3 2.5-.5.5-.9.8-1.3 1-.3.2-.5.3-.8.3-.3.1-.6 0-.8-.1-.5-.2-.9-.7-1-1.3 0-.3 0-.5.1-.8 0-.2.1-.3.1-.4.1-.2.2-.4.3-.5v-.1c.7-1.6 1.5-3.3 2.4-4.9v-.1c.1-.1.2-.3.3-.5s.1-.3.3-.5.5-.4.8-.4c.4 0 .7.2.9.4.1.2.2.3.3.5s.2.4.3.5v.1c.8 1.6 1.6 3.3 2.4 4.9v.1c0 .1.1.3.2.5.1.1.1.2.1.4.1.2.2.5.1.8zm-4.3-.5c-.6-.8-1-1.5-1.1-2.1v-.6c0-.2.1-.4.2-.5.2-.3.5-.5.9-.5s.8.2 1 .5c0 .1.1.3.1.5.1.2.1.4 0 .6-.1.6-.5 1.3-1.1 2.1zm4.9-.6c-.1-.1-.1-.3-.2-.4-.1-.2-.2-.4-.2-.5v-.1c-.8-1.6-1.6-3.3-2.4-4.9l-.1-.1c0-.2-.1-.3-.2-.5s-.2-.4-.4-.6C14 3.2 13.6 3 13 3c-.5 0-1 .2-1.4.7l-.3.6c-.1.1-.2.3-.3.5-.9 1.7-1.7 3.4-2.4 5l-.3.6c0 .1-.1.3-.1.4-.2.4-.2.8-.2 1.2.1.8.7 1.5 1.4 1.8.3.1.6.2.9.2h.3c.3-.1.7-.2 1.1-.4s.8-.6 1.3-1.1c.5.5.9.9 1.3 1.1s.8.3 1.1.4h.3c.3 0 .6-.1.9-.2.7-.3 1.3-1 1.4-1.8.1-.4 0-.8-.1-1.2zM28.7 5.7c0 .4-.4.8-.8.8-.5 0-.9-.4-.9-.8 0-.5.4-.9.9-.9.4 0 .8.4.8.9zm-3.4 1.7v.2s-.4-.5-1.2-.5c-1.4 0-2.5 1-2.5 2.5s1 2.6 2.5 2.6c.8 0 1.2-.6 1.2-.6v.3c0 .1.1.1.2.1h1V7.2h-1c-.1 0-.2.1-.2.2zm0 3.1c-.2.3-.6.5-1 .5-.9 0-1.5-.5-1.5-1.4s.6-1.4 1.5-1.4c.4 0 .8.3 1 .5v1.8zm2 1.5h1.2V7.2h-1.2V12zm18.2-4.9c-.8 0-1.2.5-1.2.5V4.8h-1.2V12h1c.1 0 .2-.1.2-.1v-.3s.4.6 1.2.6c1.4 0 2.5-1.1 2.5-2.6s-1.1-2.5-2.5-2.5zm-.2 3.9c-.4 0-.8-.3-1-.5V8.7c.2-.2.6-.5 1-.5.9 0 1.5.5 1.5 1.4s-.6 1.4-1.5 1.4zm-2.9-1.8v2.9h-1.2V9.3c0-.8-.2-1.1-.9-1.1-.4 0-.8.2-1 .5V12h-1.2V7.2h.9c.1 0 .2.1.2.2v.2c.4-.4.8-.5 1.3-.5s1 .1 1.3.4c.5.4.6.8.6 1.7zm-7.3-2.1c-.9 0-1.2.5-1.2.5V4.8h-1.3V12h1.1c.1 0 .1-.1.1-.1v-.3s.4.6 1.3.6c1.4 0 2.4-1.1 2.4-2.6.1-1.5-1-2.5-2.4-2.5zm-.2 3.9c-.5 0-.9-.3-1-.5V8.7c.1-.2.6-.5 1-.5.8 0 1.4.5 1.4 1.4s-.6 1.4-1.4 1.4zm-3.3-3.9h.5v1.2s-1-.4-1.6.4v3.4h-1.2V7.2h1c.1 0 .2.1.2.2v.2c.2-.3.7-.5 1.1-.5z"/></g></svg><svg xmlns:xlink="http://www.w3.org/1999/xlink" height="8" width="14" viewBox="0 0 14 8" y="17"><title>back-arrow</title><path d="M.64 4.219L4.017.844V3.64h9.156v1.156H4.016v2.797z" fill="#5AB8F8" fill-rule="evenodd"/></svg><svg xmlns:xlink="http://www.w3.org/1999/xlink" height="21" width="19" viewBox="0 0 19 21" y="25"><title>bell-tray</title><g fill="#878698" fill-rule="evenodd"><path d="M17.709 12.736a1.29 1.29 0 0 1-.06.684c-.113.326-.344.702-.716 1.18-.185.237-.4.471-.636.7-1.192 1.162-2.949 2.207-4.346 2.878-.432.208-.831.382-1.166.51s-.748.265-1.208.398c-1.488.432-3.493.824-5.152.752a6.767 6.767 0 0 1-.932-.099c-.645-.118-1.085-.257-1.388-.448a1.233 1.233 0 0 1-.422-.427c-.176-.303-.197-.662-.059-1.067.417-1.225 2.267-2.676 2.946-3.131 1.113-.741 3.045-1.673 3.938-2.015.893-.341 2.953-.935 4.279-1.126.803-.112 3.143-.264 4.262.374.37.211.592.492.66.837m-15.881-.571c-.262-1.029-.56-2.195-.723-3.381-.404-2.947.878-5.145 3.61-6.19 2.732-1.044 5.14-.257 6.78 2.217.66.997 1.207 2.067 1.69 3.012.534 1.05 1.001 1.958 1.518 2.567-1.116-.026-2.045.104-2.063.106-1.385.2-3.512.806-4.498 1.183-.993.38-2.977 1.345-4.145 2.122-.014.01-.795.534-1.612 1.299-.015-.8-.266-1.792-.557-2.935m15.874-1.242c-.623-.417-1.517-.428-2.163-1.146-.879-.977-1.749-3.376-3.186-5.543C10.68 1.71 8.216.657 5.448 1.294l-.003-.009c.005-.16-.02-.322-.08-.48A1.236 1.236 0 0 0 3.767.082a1.25 1.25 0 0 0-.462 2.022l.004.008C.819 3.485-.331 5.92.082 8.926c.355 2.581 1.286 4.956 1.273 6.274-.01.969-.67 1.575-.862 2.303-.202.772.092 1.644.228 1.876.193.332.49.591.841.795.506.318 1.126.475 1.746.588.32.059.66.094 1.012.111.196.014.382.023.552.027 1.942.051 3.632-.365 4.948-.801.502-.145.957-.296 1.332-.439.375-.144.814-.335 1.286-.562 1.272-.554 2.81-1.372 4.229-2.708.124-.116.258-.247.395-.389.252-.248.482-.501.683-.759.389-.5.75-1.031.919-1.607.128-.388.179-.779.104-1.157-.052-.264-.406-1.113-1.066-1.555"/><path d="M3.572 10.623l-.018-.074c-.16-.67-.31-1.367-.403-2.05-.152-1.102.017-1.993.513-2.686l.04-.053a.525.525 0 0 0 .053-.472.52.52 0 0 0-.845-.194c-.026.034-.055.066-.08.1-.652.905-.894 2.065-.704 3.447.098.716.251 1.435.415 2.12l.03.128a.52.52 0 0 0 1-.266M8.53 13.588c-.939.359-2.703 1.235-3.658 1.871-.497.331-1.031.782-1.469 1.219a3.452 3.452 0 0 0 3.337.488c1.537-.587 2.416-2.155 2.21-3.728-.154.052-.296.102-.42.15"/></g></svg><svg xmlns:xlink="http://www.w3.org/1999/xlink" height="19" width="17" viewBox="0 0 17 19" y="46"><title>bell-outline</title><g fill-rule="evenodd" fill="none"><path fill="#D9F6FF" d="M7.285 10.567c.882-.341 2.785-.89 4.025-1.07.015-.003.847-.12 1.845-.097-.463-.55-.88-1.373-1.359-2.323-.431-.854-.92-1.822-1.511-2.724-1.468-2.238-3.622-2.95-6.067-2.006-2.444.946-3.591 2.934-3.23 5.6.147 1.074.413 2.129.647 3.059.261 1.034.485 1.932.498 2.656.732-.692 1.43-1.167 1.443-1.176 1.045-.702 2.82-1.576 3.709-1.919"/><g fill="#5AB8F9"><path d="M15.845 11.523c.038.195.022.394-.054.619-.101.295-.307.635-.641 1.068a6.308 6.308 0 0 1-.568.633c-1.067 1.051-2.639 1.997-3.889 2.604-.386.188-.743.345-1.043.461-.3.116-.67.24-1.081.361-1.332.39-3.125.745-4.61.68a6.017 6.017 0 0 1-.834-.09c-.577-.107-.97-.232-1.241-.405a1.115 1.115 0 0 1-.378-.387c-.158-.274-.176-.599-.053-.965.373-1.109 2.029-2.421 2.636-2.833.996-.67 2.725-1.514 3.524-1.823s2.641-.846 3.828-1.019c.718-.101 2.812-.239 3.814.339.331.19.529.445.59.757m-14.21-.517c-.235-.931-.5-1.985-.647-3.059-.361-2.666.785-4.655 3.23-5.6 2.444-.945 4.599-.232 6.067 2.006.59.901 1.08 1.87 1.51 2.725.48.95.898 1.772 1.36 2.322a12.52 12.52 0 0 0-1.845.096c-1.24.181-3.143.73-4.026 1.071-.888.343-2.664 1.217-3.708 1.92-.013.008-.711.483-1.443 1.175-.013-.724-.237-1.622-.498-2.656m14.203-1.123c-.557-.377-1.357-.387-1.935-1.037-.786-.884-1.564-3.054-2.85-5.015C9.556 1.547 7.351.594 4.875 1.17l-.003-.008A1.143 1.143 0 0 0 4.8.728 1.103 1.103 0 0 0 3.37.074a1.135 1.135 0 0 0-.413 1.83l.003.007C.732 3.153-.296 5.356.074 8.076c.317 2.335 1.15 4.484 1.138 5.677-.008.876-.6 1.424-.77 2.083-.182.698.082 1.487.203 1.697.173.301.438.535.753.72.452.288 1.007.429 1.562.532.286.053.59.085.905.1.175.013.342.021.494.025 1.737.046 3.25-.331 4.427-.725.45-.132.856-.268 1.192-.398a14.73 14.73 0 0 0 1.151-.508c1.138-.501 2.514-1.241 3.783-2.45.111-.105.231-.224.354-.352.225-.224.431-.453.611-.687.349-.452.671-.932.822-1.454.115-.351.16-.705.094-1.046-.047-.239-.364-1.007-.955-1.407"/><path d="M3.196 9.611l-.016-.067a19.743 19.743 0 0 1-.361-1.855c-.135-.997.016-1.803.46-2.43.01-.016.024-.031.036-.048a.48.48 0 0 0 .046-.427.463.463 0 0 0-.756-.175c-.023.03-.049.06-.071.09-.584.82-.8 1.87-.63 3.12.088.647.225 1.297.371 1.917l.028.116c.092.242.36.363.598.27a.474.474 0 0 0 .295-.51M7.632 12.294c-.84.324-2.418 1.117-3.273 1.692-.445.3-.923.708-1.314 1.103a3.057 3.057 0 0 0 2.985.442c1.376-.531 2.163-1.95 1.977-3.373-.137.047-.264.093-.375.136"/></g></g></svg><svg xmlns:xlink="http://www.w3.org/1999/xlink" height="19" width="17" viewBox="0 0 17 19" y="65"><title>bell-white</title><g fill-rule="evenodd" fill="none"><path fill="#fff" d="M15.845 11.597c.038.193.022.39-.054.612-.101.293-.307.629-.641 1.058a6.263 6.263 0 0 1-.568.627c-1.067 1.04-2.639 1.977-3.889 2.578a14.19 14.19 0 0 1-1.043.457c-.3.114-.67.237-1.081.357-1.332.386-3.125.738-4.61.673a6.178 6.178 0 0 1-.834-.089c-.577-.105-.97-.23-1.241-.401a1.105 1.105 0 0 1-.378-.383c-.158-.271-.176-.593-.053-.956.373-1.097 2.029-2.397 2.636-2.805.996-.663 2.725-1.499 3.524-1.805s2.641-.838 3.828-1.009c.718-.1 2.812-.236 3.814.335.331.189.529.442.59.751m-.007-1.625c-.557-.373-1.357-.383-1.935-1.026-.786-.876-1.564-3.025-2.85-4.966C9.556 1.718 7.351.775 4.875 1.346l-.003-.008A1.122 1.122 0 0 0 4.8.908 1.106 1.106 0 0 0 3.37.259a1.12 1.12 0 0 0-.413 1.812l.003.007C.732 3.308-.296 5.49.074 8.183c.317 2.312 1.15 4.44 1.138 5.621-.008.868-.6 1.411-.77 2.063-.182.691.082 1.473.203 1.681.173.297.438.529.753.712.452.285 1.007.425 1.562.527.286.052.59.084.905.1.175.012.342.02.494.024 1.738.045 3.25-.328 4.427-.718.45-.13.857-.265 1.192-.394.336-.128.729-.3 1.151-.503 1.138-.496 2.514-1.229 3.783-2.426.111-.104.231-.222.354-.348.225-.223.431-.45.611-.68.349-.448.671-.924.822-1.44.115-.348.16-.699.094-1.037-.047-.236-.364-.997-.955-1.393"/><path fill="#5AB8F9" d="M3.196 9.704l-.016-.067c-.144-.6-.277-1.225-.361-1.837-.135-.987.016-1.785.46-2.406.01-.016.024-.031.036-.047a.47.47 0 0 0 .046-.423.465.465 0 0 0-.756-.174c-.023.03-.049.06-.071.09-.584.81-.8 1.85-.63 3.088.088.641.225 1.285.371 1.9l.028.114a.465.465 0 0 0 .893-.238"/><path fill="#fff" d="M7.632 12.359c-.84.322-2.418 1.107-3.273 1.677-.445.296-.923.7-1.314 1.092a3.083 3.083 0 0 0 2.985.437 3.136 3.136 0 0 0 1.977-3.34c-.137.047-.264.092-.375.134"/></g></svg><svg xmlns:xlink="http://www.w3.org/1999/xlink" height="19" width="19" viewBox="0 0 19 19" y="84"><title>building</title><g stroke="#888699" stroke-width=".96" stroke-linejoin="round" fill-rule="evenodd" stroke-linecap="round" fill="none"><path d="M18.109 1.283c0 .432-.333.783-.743.783H1.635c-.411 0-.743-.351-.743-.783S1.224.5 1.635.5h15.73c.41 0 .744.35.744.783z"/><path fill="#F7F7F8" d="M.5 18.5h18"/><path d="M4.413 7.543h3.13v-3.13h-3.13zM11.457 7.543h3.13v-3.13h-3.13zM4.413 13.022h3.13v-3.13h-3.13zM11.457 13.022h3.13v-3.13h-3.13zM8.326 18.5h2.348v-3.13H8.326z"/><path fill="#F7F7F8" d="M2.065 2.065V18.5M16.935 2.065V18.5"/></g></svg><svg xmlns:xlink="http://www.w3.org/1999/xlink" height="21" width="20" viewBox="0 0 20 21" y="103"><title></title><path d="M16.562 8.446a.8.8 0 0 0-.231-.59l-1.168-1.155a.789.789 0 0 0-.578-.244.786.786 0 0 0-.577.244l-5.237 5.224-2.9-2.901a.79.79 0 0 0-.578-.244.789.789 0 0 0-.578.244l-1.168 1.155a.8.8 0 0 0-.231.591c0 .231.077.423.231.577l4.647 4.646a.786.786 0 0 0 .577.244.805.805 0 0 0 .591-.244l6.969-6.969a.783.783 0 0 0 .231-.578zm3.234 2.08c0 1.788-.44 3.437-1.322 4.948-.881 1.51-2.077 2.706-3.587 3.587s-3.16 1.322-4.948 1.322-3.437-.441-4.948-1.322a9.81 9.81 0 0 1-3.587-3.587C.523 13.963.082 12.314.082 10.526c0-1.789.441-3.438 1.322-4.948s2.077-2.706 3.587-3.587C6.502 1.109 8.151.669 9.939.669s3.438.44 4.948 1.322a9.81 9.81 0 0 1 3.587 3.587c.882 1.51 1.322 3.159 1.322 4.948z" fill="#5AB8F8" fill-rule="evenodd"/></svg><svg width="16" viewBox="0 0 16 16" height="16" y="124"><title>icon-cross</title><path d="M15.7.3c.2.2.3.4.3.7s-.1.5-.3.7L9.4 8l6.3 6.3c.2.2.3.4.3.7s-.1.5-.3.7-.4.3-.7.3-.5-.1-.7-.3L8 9.4l-6.3 6.3c-.2.2-.4.3-.7.3s-.5-.1-.7-.3-.3-.4-.3-.7.1-.5.3-.7L6.6 8 .3 1.7C.1 1.5 0 1.3 0 1S.1.5.3.3.7 0 1 0s.5.1.7.3L8 6.6 14.3.3c.2-.2.4-.3.7-.3s.5.1.7.3z" fill="#C6C6CC"/></svg><svg width="16" viewBox="0 0 16 16" height="16" y="140"><title>icon-cross</title><path d="M15.7.3c.2.2.3.4.3.7s-.1.5-.3.7L9.4 8l6.3 6.3c.2.2.3.4.3.7s-.1.5-.3.7-.4.3-.7.3-.5-.1-.7-.3L8 9.4l-6.3 6.3c-.2.2-.4.3-.7.3s-.5-.1-.7-.3-.3-.4-.3-.7.1-.5.3-.7L6.6 8 .3 1.7C.1 1.5 0 1.3 0 1S.1.5.3.3.7 0 1 0s.5.1.7.3L8 6.6 14.3.3c.2-.2.4-.3.7-.3s.5.1.7.3z" fill="#000"/></svg><svg width="16" viewBox="0 0 16 16" height="16" y="156"><title>icon-cross</title><path d="M15.7.3c.2.2.3.4.3.7s-.1.5-.3.7L9.4 8l6.3 6.3c.2.2.3.4.3.7s-.1.5-.3.7-.4.3-.7.3-.5-.1-.7-.3L8 9.4l-6.3 6.3c-.2.2-.4.3-.7.3s-.5-.1-.7-.3-.3-.4-.3-.7.1-.5.3-.7L6.6 8 .3 1.7C.1 1.5 0 1.3 0 1S.1.5.3.3.7 0 1 0s.5.1.7.3L8 6.6 14.3.3c.2-.2.4-.3.7-.3s.5.1.7.3z" fill="#727272"/></svg><svg width="16" viewBox="0 0 16 16" height="16" y="172"><title>icon-cross</title><path d="M15.7.3c.2.2.3.4.3.7s-.1.5-.3.7L9.4 8l6.3 6.3c.2.2.3.4.3.7s-.1.5-.3.7-.4.3-.7.3-.5-.1-.7-.3L8 9.4l-6.3 6.3c-.2.2-.4.3-.7.3s-.5-.1-.7-.3-.3-.4-.3-.7.1-.5.3-.7L6.6 8 .3 1.7C.1 1.5 0 1.3 0 1S.1.5.3.3.7 0 1 0s.5.1.7.3L8 6.6 14.3.3c.2-.2.4-.3.7-.3s.5.1.7.3z" fill="#fff"/></svg><svg xmlns:xlink="http://www.w3.org/1999/xlink" height="18" width="20" viewBox="0 0 20 18" y="188"><title>favorite</title><path d="M10.123 17.39c-2.14-1.958-4.257-3.798-6.264-5.765a9.266 9.266 0 0 1-2.615-4.804C.574 3.579 2.799.669 5.914.758c1.816.053 3.223.941 4.277 2.689C11.244 1.699 12.65.81 14.467.758c3.115-.089 5.34 2.821 4.67 6.063a9.259 9.259 0 0 1-2.616 4.804c-2.006 1.967-4.123 3.807-6.264 5.765" stroke="#888699" stroke-width=".96" stroke-linejoin="round" fill-rule="evenodd" stroke-linecap="round" fill="none"/></svg><svg xmlns:xlink="http://www.w3.org/1999/xlink" height="27" width="78" viewBox="0 0 78 27" y="206"><title>feature-badge-9816</title><defs><filter id="a" height="200%" width="200%" y="-50%" x="-50%" filterUnits="objectBoundingBox"><feOffset in="SourceAlpha" result="shadowOffsetOuter1" dy="2"/><feGaussianBlur stdDeviation="2" result="shadowBlurOuter1" in="shadowOffsetOuter1"/><feColorMatrix values="0 0 0 0 0.592156863 0 0 0 0 0.823529412 0 0 0 0 0.984313725 0 0 0 0.3 0" result="shadowMatrixOuter1" in="shadowBlurOuter1"/><feMerge><feMergeNode in="shadowMatrixOuter1"/><feMergeNode in="SourceGraphic"/></feMerge></filter></defs><g transform="translate(4 2)" filter="url(#a)" fill-rule="evenodd" fill="none"><rect rx="9.5" height="19" width="70" fill="#EE5062"/><path fill="#fff" d="M6 6v7.14h1.57v-2.95h2.99V8.97H7.57V7.32h3.45V6H6zm6.763 0v7.14h5.42v-1.32h-3.85v-1.75h3.46V8.85h-3.46V7.32h3.77V6h-5.34zm9.114 4.38l.93-2.62h.02l.9 2.62h-1.85zm.15-4.38l-2.7 7.14h1.58l.56-1.59h2.67l.54 1.59h1.63L23.637 6h-1.61zm6.393 1.32v5.82h1.57V7.32h2.14V6h-5.85v1.32h2.14zm11.423 3.12V6h-1.57v4.44c0 .533-.106.925-.32 1.175-.213.25-.6.375-1.16.375-.32 0-.575-.045-.765-.135s-.338-.207-.445-.35a1.17 1.17 0 0 1-.21-.495 3.274 3.274 0 0 1-.05-.57V6h-1.57v4.44c0 .973.265 1.693.795 2.16s1.279.7 2.245.7c.954 0 1.7-.235 2.24-.705s.81-1.188.81-2.155zm3.754-1.21V7.22h1.72c.36 0 .63.078.81.235s.27.408.27.755c0 .36-.09.62-.27.78s-.45.24-.81.24h-1.72zM42.027 6v7.14h1.57v-2.79h1.57c.393 0 .676.087.85.26.173.173.286.447.34.82.04.287.07.587.09.9s.073.583.16.81h1.57a1.03 1.03 0 0 1-.165-.365 3.014 3.014 0 0 1-.08-.455 7.086 7.086 0 0 1-.035-.47 53.233 53.233 0 0 0-.02-.4 4.55 4.55 0 0 0-.075-.54c-.037-.18-.095-.345-.175-.495s-.184-.28-.31-.39a1.215 1.215 0 0 0-.48-.245v-.02c.4-.16.688-.393.865-.7.176-.307.265-.67.265-1.09 0-.273-.049-.528-.145-.765a1.854 1.854 0 0 0-.42-.625 2.004 2.004 0 0 0-.66-.425A2.3 2.3 0 0 0 45.877 6h-3.85zm8.053 0v7.14h5.42v-1.32h-3.85v-1.75h3.46V8.85h-3.46V7.32h3.77V6h-5.34zm8.883 5.82v-4.5h1.12c.387 0 .712.055.975.165.264.11.475.268.635.475s.275.455.345.745.105.615.105.975c0 .393-.05.727-.15 1s-.233.495-.4.665a1.44 1.44 0 0 1-.57.365c-.213.073-.433.11-.66.11h-1.4zM57.393 6v7.14h3.08c.547 0 1.022-.092 1.425-.275.404-.183.74-.435 1.01-.755s.472-.7.605-1.14c.134-.44.2-.92.2-1.44 0-.593-.081-1.11-.245-1.55-.163-.44-.39-.807-.68-1.1s-.633-.513-1.03-.66A3.673 3.673 0 0 0 60.473 6h-3.08z"/></g></svg><svg xmlns:xlink="http://www.w3.org/1999/xlink" height="18" width="20" viewBox="0 0 20 18" y="233"><title>about</title><g fill-rule="evenodd" fill="none"><path fill="#888699" d="M19.583 16.784h-1.25v-9.49l.023.01c.132.048.269.07.403.07.512 0 .977-.321 1.162-.815l.001-.003c.051-.14.077-.286.077-.431a1.186 1.186 0 0 0-.738-1.1l.001-.006L10.191.44a.42.42 0 0 0-.382 0L.737 5.02l.002.004c-.464.19-.741.634-.74 1.1 0 .146.027.293.08.434.182.495.649.815 1.16.816.134 0 .271-.022.403-.07l.025-.01v9.49H.417c-.23 0-.417.183-.417.409s.187.409.417.409h19.166c.23 0 .417-.183.417-.409s-.187-.409-.417-.409zM1.343 6.538l-.104.018a.413.413 0 0 1-.378-.277l-.029-.154c.003-.17.098-.308.238-.357l.048-.021 8.88-4.484 8.884 4.484.047.02c.139.05.236.188.238.358l-.03.154a.414.414 0 0 1-.378.277l-.102-.017-8.46-4.442a.427.427 0 0 0-.394 0l-8.46 4.441zm1.157.32L10 2.923l7.5 3.937v9.925h-5v-6.545h-5v6.545h-5V6.859zm5.833 4.198h3.333v5.727H8.333v-5.727z"/><path fill="#F7F7F8" d="M10 2.922l7.5 3.937v9.925h-5v-6.545h-5v6.545h-5V6.859z"/></g></svg><svg xmlns:xlink="http://www.w3.org/1999/xlink" height="20" width="20" viewBox="0 0 20 20" y="251"><title>signout</title><g fill-rule="evenodd" fill="none"><path fill="#888699" d="M10 0C4.478 0 0 4.477 0 10s4.478 10 10 10c5.523 0 10-4.477 10-10S15.523 0 10 0zm6.482 16.482A9.137 9.137 0 0 1 10 19.167a9.137 9.137 0 0 1-6.481-2.685A9.138 9.138 0 0 1 .833 10 9.136 9.136 0 0 1 3.52 3.518 9.133 9.133 0 0 1 10 .833c2.533 0 4.822 1.025 6.482 2.685s2.685 3.95 2.685 6.482a9.135 9.135 0 0 1-2.685 6.482z"/><path opacity=".205" d="M16.482 16.482A9.137 9.137 0 0 1 10 19.167a9.137 9.137 0 0 1-6.481-2.685A9.138 9.138 0 0 1 .833 10 9.136 9.136 0 0 1 3.52 3.518 9.133 9.133 0 0 1 10 .833c2.533 0 4.822 1.025 6.482 2.685s2.685 3.95 2.685 6.482a9.135 9.135 0 0 1-2.685 6.482z"/><path fill="#878698" d="M10.81 8.149H7.586v.923h2.028v5.005H7.521V15h5.2v-.923H10.81V8.149zm.247-2.444c0-.455-.351-.806-.845-.806s-.832.351-.832.806c0 .468.338.819.832.819s.845-.351.845-.819z"/></g></svg><svg xmlns:xlink="http://www.w3.org/1999/xlink" height="20" width="20" viewBox="0 0 20 20" y="271"><title>signout</title><g fill-rule="evenodd" fill="none"><path fill="#888699" d="M10 0C4.478 0 0 4.477 0 10s4.478 10 10 10c5.523 0 10-4.477 10-10S15.523 0 10 0zm6.482 16.482A9.137 9.137 0 0 1 10 19.167a9.137 9.137 0 0 1-6.481-2.685A9.138 9.138 0 0 1 .833 10 9.136 9.136 0 0 1 3.52 3.518 9.133 9.133 0 0 1 10 .833c2.533 0 4.822 1.025 6.482 2.685s2.685 3.95 2.685 6.482a9.135 9.135 0 0 1-2.685 6.482z"/><path fill="#F7F7F8" d="M16.482 16.482A9.137 9.137 0 0 1 10 19.167a9.137 9.137 0 0 1-6.481-2.685A9.138 9.138 0 0 1 .833 10 9.136 9.136 0 0 1 3.52 3.518 9.133 9.133 0 0 1 10 .833c2.533 0 4.822 1.025 6.482 2.685s2.685 3.95 2.685 6.482a9.135 9.135 0 0 1-2.685 6.482z"/><path fill="#888699" d="M15.571 9.557h-9.86l3.555-2.76a.452.452 0 0 0 .085-.62.419.419 0 0 0-.6-.088l-4.58 3.557c-.008.005-.01.015-.018.02a.45.45 0 0 0-.08.101c-.01.017-.023.03-.031.048A.446.446 0 0 0 4 10c0 .066.016.128.042.185.008.018.02.031.03.047a.431.431 0 0 0 .081.101c.008.006.01.015.018.021l4.58 3.557c.19.147.458.108.6-.088a.452.452 0 0 0-.085-.62l-3.553-2.76h9.858A.437.437 0 0 0 16 10a.436.436 0 0 0-.429-.443"/></g></svg><svg xmlns:xlink="http://www.w3.org/1999/xlink" height="20" width="20" viewBox="0 0 20 20" y="291"><title>signout</title><g fill-rule="evenodd" fill="none"><path fill="#888699" d="M10 0C4.478 0 0 4.477 0 10s4.478 10 10 10c5.523 0 10-4.477 10-10S15.523 0 10 0zm6.482 16.482A9.137 9.137 0 0 1 10 19.167a9.137 9.137 0 0 1-6.481-2.685A9.138 9.138 0 0 1 .833 10 9.136 9.136 0 0 1 3.52 3.518 9.133 9.133 0 0 1 10 .833c2.533 0 4.822 1.025 6.482 2.685s2.685 3.95 2.685 6.482a9.135 9.135 0 0 1-2.685 6.482z"/><path opacity=".205" d="M16.482 16.482A9.137 9.137 0 0 1 10 19.167a9.137 9.137 0 0 1-6.481-2.685A9.138 9.138 0 0 1 .833 10 9.136 9.136 0 0 1 3.52 3.518 9.133 9.133 0 0 1 10 .833c2.533 0 4.822 1.025 6.482 2.685s2.685 3.95 2.685 6.482a9.135 9.135 0 0 1-2.685 6.482z"/><path fill="#888699" d="M15.571 9.557h-9.86l3.555-2.76a.452.452 0 0 0 .085-.62.419.419 0 0 0-.6-.088l-4.58 3.557c-.008.005-.01.015-.018.02a.45.45 0 0 0-.08.101c-.01.017-.023.03-.031.048A.446.446 0 0 0 4 10c0 .066.016.128.042.185.008.018.02.031.03.047a.431.431 0 0 0 .081.101c.008.006.01.015.018.021l4.58 3.557c.19.147.458.108.6-.088a.452.452 0 0 0-.085-.62l-3.553-2.76h9.858A.437.437 0 0 0 16 10a.436.436 0 0 0-.429-.443"/></g></svg><svg xmlns:xlink="http://www.w3.org/1999/xlink" height="20" width="25" viewBox="0 0 25 20" y="311"><title>menu</title><g fill="#A9A8B2" fill-rule="evenodd"><rect rx="1.25" height="2.5" width="25" y=".25"/><rect rx="1.25" height="2.5" width="25" y="8.75"/><rect rx="1.25" height="2.5" width="25" y="17.25"/></g></svg><svg xmlns:xlink="http://www.w3.org/1999/xlink" height="23" width="23" viewBox="0 0 23 23" y="331"><title>no-fee</title><g fill-rule="evenodd" fill="none"><path fill="#D8D8D8" d="M21 11.5A9.5 9.5 0 0 0 11.5 2 9.5 9.5 0 0 0 2 11.5a9.5 9.5 0 0 0 9.5 9.5 9.5 9.5 0 0 0 9.5-9.5zm-21 0C0 5.149 5.149 0 11.5 0S23 5.149 23 11.5 17.851 23 11.5 23 0 17.851 0 11.5z"/><path fill="#D8D8D8" d="M16.447 15.731l2.636 2.53.721.692-1.384 1.443-.722-.692-2.923-2.806a3.007 3.007 0 0 0 1.672-1.167zM7.584 7.226L4.391 4.16l-.722-.692-1.384 1.443.721.692L7 9.437v-.431c0-.667.217-1.282.584-1.78z"/><path fill="#888699" d="M9.796 13.209H7.747c.097 1.143.45 2.01 1.06 2.6.61.591 1.458.925 2.543 1.003v1.235h.857v-1.235c.726-.049 1.322-.194 1.787-.436s.835-.518 1.111-.828.467-.627.574-.951c.106-.325.16-.594.16-.807 0-.242-.017-.518-.051-.828s-.143-.619-.327-.929-.47-.608-.857-.894c-.388-.285-.94-.525-1.656-.719a8.994 8.994 0 0 0-.385-.101l-.356-.088v-2.57c.329 0 .61.135.843.406.232.271.353.6.363.988h2.062c-.029-.504-.135-.94-.319-1.308s-.421-.675-.712-.922a3.288 3.288 0 0 0-1.01-.581 5.215 5.215 0 0 0-1.227-.283V4.842h-.857v1.119c-.436.029-.857.113-1.264.254-.407.14-.765.339-1.075.595-.31.257-.56.574-.748.952-.189.378-.283.813-.283 1.307 0 .484.082.889.247 1.213.164.325.385.596.66.814s.589.392.938.523c.348.13.702.244 1.06.341a3.043 3.043 0 0 1 .465.131v3.036a2.034 2.034 0 0 1-1.119-.61c-.3-.32-.445-.756-.435-1.308zm2.411 1.918v-2.789c.571.155.976.327 1.213.515.237.189.356.472.356.85 0 .233-.049.434-.145.603a1.46 1.46 0 0 1-.371.429c-.15.116-.319.205-.508.268s-.371.104-.545.124zM11.35 7.66v2.368c-.465-.107-.799-.247-1.002-.421-.204-.175-.305-.422-.305-.741 0-.204.036-.38.109-.53.072-.15.171-.276.297-.378s.267-.177.422-.225c.155-.049.314-.073.479-.073z"/></g></svg><svg xmlns:xlink="http://www.w3.org/1999/xlink" height="20" width="15" viewBox="0 0 15 20" y="354"><title>nav pin</title><path d="M14.792 7.4c0 4.7-6.28 12.2-7.188 12.2S.417 12.1.417 7.4C.417 3.59 3.635.5 7.604.5c3.969 0 7.188 3.09 7.188 6.9zm-4.656.147c0 1.382-1.15 2.503-2.57 2.503-1.419 0-2.57-1.12-2.57-2.503s1.151-2.503 2.57-2.503c1.42 0 2.57 1.12 2.57 2.503z" fill="#5AB8F8" fill-rule="evenodd"/></svg><svg xmlns:xlink="http://www.w3.org/1999/xlink" height="16" width="16" viewBox="0 0 16 16" y="374"><title>refresh</title><path d="M10.109.454l.015 5.691 2.25-2.265c2.207 2.373 2.168 6.092-.124 8.4a5.923 5.923 0 0 1-3.332 1.694L8.987 16a7.914 7.914 0 0 0 4.68-2.293c3.072-3.094 3.109-8.088.12-11.25l1.698-1.71-5.376-.293zM3.626 12.12c-2.207-2.373-2.168-6.092.124-8.401a5.935 5.935 0 0 1 3.331-1.694L7.013 0a7.918 7.918 0 0 0-4.68 2.292c-3.072 3.095-3.108 8.089-.12 11.25l-1.698 1.71 5.375.294-.014-5.692-2.25 2.265z" fill="#5AB8F8" fill-rule="evenodd"/></svg><svg xmlns:xlink="http://www.w3.org/1999/xlink" height="20" width="20" viewBox="0 0 20 20" y="390"><title>signout</title><g fill-rule="evenodd" fill="none"><path fill="#888699" d="M10 20c5.522 0 10-4.477 10-10S15.522 0 10 0C4.477 0 0 4.477 0 10s4.477 10 10 10zM3.518 3.518A9.137 9.137 0 0 1 10 .833a9.137 9.137 0 0 1 6.481 2.685A9.138 9.138 0 0 1 19.167 10a9.136 9.136 0 0 1-2.686 6.482A9.133 9.133 0 0 1 10 19.167c-2.533 0-4.822-1.025-6.482-2.685S.833 12.532.833 10a9.135 9.135 0 0 1 2.685-6.482z"/><path fill="#F7F7F8" d="M3.518 3.518A9.137 9.137 0 0 1 10 .833a9.137 9.137 0 0 1 6.481 2.685A9.138 9.138 0 0 1 19.167 10a9.136 9.136 0 0 1-2.686 6.482A9.133 9.133 0 0 1 10 19.167c-2.533 0-4.822-1.025-6.482-2.685S.833 12.532.833 10a9.135 9.135 0 0 1 2.685-6.482z"/><path fill="#888699" d="M4.429 10.443h9.86l-3.555 2.76a.452.452 0 0 0-.085.62c.142.196.41.235.6.088l4.58-3.557c.008-.005.01-.015.018-.02a.45.45 0 0 0 .08-.101c.01-.017.023-.03.031-.048A.446.446 0 0 0 16 10a.448.448 0 0 0-.042-.185c-.008-.018-.02-.031-.03-.047a.431.431 0 0 0-.081-.101c-.008-.006-.01-.015-.018-.021l-4.58-3.557a.419.419 0 0 0-.6.088.452.452 0 0 0 .085.62l3.553 2.76H4.43A.437.437 0 0 0 4 10c0 .244.192.443.429.443"/></g></svg><svg xmlns:xlink="http://www.w3.org/1999/xlink" height="20" width="20" viewBox="0 0 20 20" y="410"><title>signout</title><g fill-rule="evenodd" fill="none"><path fill="#888699" d="M10 20c5.522 0 10-4.477 10-10S15.522 0 10 0C4.477 0 0 4.477 0 10s4.477 10 10 10zM3.518 3.518A9.137 9.137 0 0 1 10 .833a9.137 9.137 0 0 1 6.481 2.685A9.138 9.138 0 0 1 19.167 10a9.136 9.136 0 0 1-2.686 6.482A9.133 9.133 0 0 1 10 19.167c-2.533 0-4.822-1.025-6.482-2.685S.833 12.532.833 10a9.135 9.135 0 0 1 2.685-6.482z"/><path opacity=".205" d="M3.518 3.518A9.137 9.137 0 0 1 10 .833a9.137 9.137 0 0 1 6.481 2.685A9.138 9.138 0 0 1 19.167 10a9.136 9.136 0 0 1-2.686 6.482A9.133 9.133 0 0 1 10 19.167c-2.533 0-4.822-1.025-6.482-2.685S.833 12.532.833 10a9.135 9.135 0 0 1 2.685-6.482z"/><path fill="#888699" d="M4.429 10.443h9.86l-3.555 2.76a.452.452 0 0 0-.085.62c.142.196.41.235.6.088l4.58-3.557c.008-.005.01-.015.018-.02a.45.45 0 0 0 .08-.101c.01-.017.023-.03.031-.048A.446.446 0 0 0 16 10a.448.448 0 0 0-.042-.185c-.008-.018-.02-.031-.03-.047a.431.431 0 0 0-.081-.101c-.008-.006-.01-.015-.018-.021l-4.58-3.557a.419.419 0 0 0-.6.088.452.452 0 0 0 .085.62l3.553 2.76H4.43A.437.437 0 0 0 4 10c0 .244.192.443.429.443"/></g></svg><svg xmlns:xlink="http://www.w3.org/1999/xlink" height="23" width="22" viewBox="0 0 22 23" y="430"><title>search</title><path d="M8.555 16.19c4.172 0 7.555-3.4 7.555-7.595S12.727 1 8.555 1C4.382 1 1 4.4 1 8.595s3.382 7.595 7.555 7.595zm5.018-1.024L20.372 22l.628-.632-6.798-6.834-.629.632z" stroke="#C6C6CC" stroke-width="2" stroke-linejoin="round" fill-rule="evenodd" stroke-linecap="round" fill="none"/></svg><svg xmlns:xlink="http://www.w3.org/1999/xlink" height="23" width="22" viewBox="0 0 22 23" y="453"><title>search</title><path d="M8.555 16.19c4.172 0 7.555-3.4 7.555-7.595S12.727 1 8.555 1C4.382 1 1 4.4 1 8.595s3.382 7.595 7.555 7.595zm5.018-1.024L20.372 22l.628-.632-6.798-6.834-.629.632z" stroke="#878698" stroke-width="1.375" stroke-linejoin="round" fill-rule="evenodd" stroke-linecap="round" fill="none"/></svg><svg xmlns:xlink="http://www.w3.org/1999/xlink" height="21" width="21" viewBox="0 0 21 21" y="476"><title>zoom</title><defs><filter id="b" height="200%" width="200%" y="-50%" x="-50%" filterUnits="objectBoundingBox"><feOffset in="SourceAlpha" result="shadowOffsetOuter1" dy="2"/><feGaussianBlur stdDeviation="2" result="shadowBlurOuter1" in="shadowOffsetOuter1"/><feColorMatrix values="0 0 0 0 0.592156863 0 0 0 0 0.823529412 0 0 0 0 0.984313725 0 0 0 0.3 0" result="shadowMatrixOuter1" in="shadowBlurOuter1"/><feMerge><feMergeNode in="shadowMatrixOuter1"/><feMergeNode in="SourceGraphic"/></feMerge></filter></defs><g filter="url(#b)" transform="translate(-224 -126)" fill-rule="evenodd" fill="none"><path stroke-linejoin="round" d="M236.244 137.069a4.5 4.5 0 1 1 .393-.378l3.872 3.372-.341.422-3.924-3.416z" stroke="#5AB8F8" stroke-linecap="round" stroke-width="1.1"/><path fill="#5AB8F8" d="M235.537 133.338h-1.875v-1.875a.313.313 0 0 0-.625 0v1.875h-1.875a.313.313 0 0 0 0 .625h1.875v1.875a.313.313 0 0 0 .625 0v-1.875h1.875a.313.313 0 0 0 0-.625"/></g></svg><svg xmlns:xlink="http://www.w3.org/1999/xlink" height="17" width="68" viewBox="0 0 68 17" y="497"><title>short-stay-dark</title><g fill-rule="evenodd" fill="none"><rect rx="8.5" height="17" width="68" fill="#0A5791"/><path fill="#fff" d="M12.401 6.445h.99c-.015-.433-.097-.805-.247-1.117a2.186 2.186 0 0 0-.616-.775c-.261-.205-.563-.356-.908-.451s-.719-.143-1.122-.143c-.359 0-.71.046-1.05.138s-.646.23-.913.418-.483.425-.644.715-.242.632-.242 1.028c0 .36.072.658.215.897s.333.432.572.583.507.27.808.363.607.172.918.241l.919.204c.301.066.57.152.809.259.238.106.428.243.572.412.143.169.214.389.214.66 0 .286-.059.521-.176.704s-.271.328-.462.435a2.098 2.098 0 0 1-.644.225 3.89 3.89 0 0 1-.709.066c-.293 0-.579-.037-.858-.11-.279-.073-.522-.187-.732-.341s-.377-.35-.506-.588a1.778 1.778 0 0 1-.192-.853h-.99c0 .477.086.889.258 1.237.173.349.407.635.704.858.297.224.642.391 1.034.501s.809.165 1.249.165c.359 0 .72-.042 1.084-.126.363-.085.691-.22.984-.408a2.3 2.3 0 0 0 .72-.726c.188-.297.281-.654.281-1.072 0-.389-.071-.711-.215-.968a1.904 1.904 0 0 0-.572-.638c-.238-.169-.507-.302-.808-.401s-.607-.186-.918-.259a35.317 35.317 0 0 0-.919-.203c-.3-.063-.57-.142-.808-.237s-.43-.218-.572-.368-.215-.347-.215-.589c0-.257.05-.471.149-.643s.23-.31.396-.413.353-.176.566-.22c.213-.044.429-.066.649-.066.543 0 .988.127 1.336.38.349.253.552.661.611 1.226zm2.685-2.299V12h.935V8.788c0-.257.035-.493.104-.71.07-.216.175-.405.314-.566s.313-.286.522-.374.457-.132.743-.132c.359 0 .642.103.847.308s.308.484.308.836V12h.935V8.26c0-.308-.031-.589-.094-.842-.062-.253-.17-.47-.324-.654s-.356-.326-.605-.429-.561-.154-.935-.154c-.169 0-.343.018-.523.055-.179.037-.352.093-.517.17s-.313.176-.445.297-.235.27-.308.446h-.022V4.146h-.935zm7.052 5.016c0-.345.046-.65.137-.918.092-.268.218-.494.38-.677.161-.183.35-.323.566-.418.217-.095.446-.143.688-.143s.471.048.687.143c.217.095.405.235.567.418.161.183.288.409.379.677.092.267.138.573.138.918s-.046.65-.138.918a1.92 1.92 0 0 1-.379.672c-.162.179-.35.317-.567.412-.216.095-.445.143-.687.143s-.471-.048-.688-.143a1.648 1.648 0 0 1-.566-.412 1.922 1.922 0 0 1-.38-.672 2.843 2.843 0 0 1-.137-.918zm-.99 0c0 .418.058.807.176 1.166.117.359.293.673.528.94.234.268.524.477.869.628.344.15.74.225 1.188.225.454 0 .852-.075 1.193-.225.341-.151.629-.36.864-.628.234-.267.41-.581.528-.94.117-.36.176-.748.176-1.166s-.059-.808-.176-1.171a2.675 2.675 0 0 0-.528-.946c-.235-.268-.523-.479-.864-.633s-.739-.231-1.193-.231c-.448 0-.844.077-1.188.231a2.478 2.478 0 0 0-.869.633 2.644 2.644 0 0 0-.528.946 3.768 3.768 0 0 0-.176 1.171zm6.843-2.849V12h.935V9.47c0-.367.036-.691.11-.974.073-.282.19-.522.352-.72.161-.198.374-.348.638-.451s.583-.154.957-.154v-.99c-.506-.015-.924.088-1.254.308s-.609.561-.836 1.023h-.022V6.313h-.88zm5.247 0V4.608h-.935v1.705h-.968v.825h.968v3.619c0 .264.026.477.077.638.052.161.131.286.237.374s.246.148.418.181c.172.034.379.05.621.05h.715v-.825h-.429c-.146 0-.265-.005-.357-.017a.462.462 0 0 1-.215-.071c-.051-.037-.086-.088-.104-.154s-.028-.154-.028-.264V7.138h1.133v-.825h-1.133zm10.43.132h.99c-.015-.433-.097-.805-.247-1.117a2.186 2.186 0 0 0-.616-.775c-.261-.205-.563-.356-.908-.451s-.719-.143-1.122-.143c-.359 0-.709.046-1.05.138s-.646.23-.913.418c-.268.187-.483.425-.644.715s-.242.632-.242 1.028c0 .36.072.658.215.897s.333.432.572.583c.238.15.507.27.808.363s.607.172.919.241l.918.204c.301.066.57.152.809.259.238.106.429.243.572.412s.214.389.214.66c0 .286-.059.521-.176.704s-.271.328-.462.435a2.102 2.102 0 0 1-.643.225 3.91 3.91 0 0 1-.71.066c-.293 0-.579-.037-.858-.11s-.522-.187-.731-.341-.378-.35-.506-.588a1.77 1.77 0 0 1-.193-.853h-.99c0 .477.086.889.259 1.237.172.349.407.635.704.858.297.224.641.391 1.034.501a4.8 4.8 0 0 0 2.332.039c.363-.085.691-.22.984-.408.293-.187.534-.428.721-.726.187-.297.28-.654.28-1.072 0-.389-.071-.711-.214-.968s-.334-.47-.572-.638c-.239-.169-.508-.302-.809-.401s-.607-.186-.918-.259c-.312-.073-.618-.141-.919-.203s-.57-.142-.808-.237c-.239-.095-.429-.218-.572-.368s-.215-.347-.215-.589c0-.257.05-.471.149-.643s.231-.31.396-.413.353-.176.566-.22.429-.066.649-.066c.543 0 .988.127 1.337.38.348.253.551.661.61 1.226zm3.983-.132V4.608h-.935v1.705h-.968v.825h.968v3.619c0 .264.026.477.077.638s.13.286.236.374a.917.917 0 0 0 .418.181c.173.034.38.05.622.05h.715v-.825h-.429c-.147 0-.266-.005-.358-.017-.091-.011-.163-.034-.214-.071s-.086-.088-.105-.154a1.038 1.038 0 0 1-.027-.264V7.138h1.133v-.825h-1.133zm7.459 5.665c-.162.095-.385.143-.671.143-.242 0-.435-.068-.578-.203-.143-.136-.214-.358-.214-.666-.257.308-.556.53-.897.666a2.974 2.974 0 0 1-1.105.203c-.257 0-.501-.029-.732-.088s-.431-.15-.599-.275a1.32 1.32 0 0 1-.402-.49 1.643 1.643 0 0 1-.148-.731c0-.323.055-.587.165-.792s.255-.372.434-.5c.18-.129.385-.226.616-.292s.468-.121.71-.165c.256-.051.5-.09.731-.115s.435-.063.611-.11.315-.118.418-.21c.102-.091.154-.225.154-.401 0-.205-.039-.37-.116-.495s-.176-.22-.297-.286-.256-.11-.407-.132a3.07 3.07 0 0 0-.445-.033c-.396 0-.726.075-.99.226s-.407.434-.429.852h-.935c.014-.352.088-.649.22-.891s.308-.438.528-.588.471-.259.753-.325c.283-.066.585-.099.908-.099.256 0 .511.018.764.055s.482.112.688.226c.205.113.37.273.495.478.124.205.187.473.187.803v2.926c0 .22.013.381.038.484.026.103.112.154.259.154a.92.92 0 0 0 .286-.055v.726zm-1.518-2.915a1.172 1.172 0 0 1-.462.193c-.191.04-.391.073-.6.099s-.42.055-.632.088a2.315 2.315 0 0 0-.572.159 1.044 1.044 0 0 0-.413.314c-.106.135-.159.32-.159.555 0 .154.031.284.093.391.063.106.143.192.242.258s.215.114.347.143.271.044.418.044a2.2 2.2 0 0 0 .792-.127c.22-.084.399-.19.539-.318.139-.129.242-.268.308-.418.066-.151.099-.292.099-.424v-.957zm4.874 3.696c-.11.279-.219.513-.325.704s-.224.346-.352.467a1.175 1.175 0 0 1-.429.264 1.624 1.624 0 0 1-.544.083c-.11 0-.22-.007-.33-.022s-.217-.04-.319-.077v-.858a1.554 1.554 0 0 0 .55.132.8.8 0 0 0 .478-.138.838.838 0 0 0 .292-.39l.385-.957-2.255-5.654h1.056l1.661 4.653h.022l1.595-4.653h.99l-2.475 6.446z"/></g></svg><svg xmlns:xlink="http://www.w3.org/1999/xlink" height="14" width="12" viewBox="0 0 12 14" y="514"><title>trash</title><path d="M4.29 5.304c0-.151-.12-.268-.27-.268h-.54c-.15 0-.27.117-.27.268v4.821c0 .151.12.268.27.268h.54c.15 0 .27-.117.27-.268V5.304zm2.14 0c0-.151-.12-.268-.27-.268h-.53a.26.26 0 0 0-.27.268v4.821c0 .151.11.268.27.268h.53c.15 0 .27-.117.27-.268V5.304zm2.14 0c0-.151-.12-.268-.27-.268h-.53c-.15 0-.27.117-.27.268v4.821c0 .151.12.268.27.268h.53c.15 0 .27-.117.27-.268V5.304zm1.07 6.06c0 .402-.22.636-.26.636H2.41c-.04 0-.27-.234-.27-.636V3.429h7.5v7.935zM4.02 2.357l.41-.98a.256.256 0 0 1 .14-.091h2.65a.33.33 0 0 1 .15.092l.4.98H4.02zm7.77.268c0-.15-.12-.268-.27-.268H8.93L8.35.96C8.18.55 7.68.214 7.23.214H4.55c-.44 0-.94.335-1.11.745l-.59 1.398H.27c-.15 0-.27.117-.27.268v.536c0 .15.12.268.27.268h.8v7.968c0 .921.6 1.674 1.34 1.674h6.97c.73 0 1.33-.786 1.33-1.707V3.429h.81c.15 0 .27-.118.27-.268v-.536z" fill="#9B9B9B" fill-rule="evenodd"/></svg><svg xmlns:xlink="http://www.w3.org/1999/xlink" height="21" width="20" viewBox="0 0 20 21" y="528"><title></title><path d="M9.939.319c1.788 0 3.438.44 4.948 1.322a9.81 9.81 0 0 1 3.587 3.587c.882 1.51 1.322 3.159 1.322 4.948 0 1.788-.44 3.437-1.322 4.948-.881 1.51-2.077 2.706-3.587 3.587s-3.16 1.322-4.948 1.322-3.437-.441-4.948-1.322a9.81 9.81 0 0 1-3.587-3.587C.523 13.613.082 11.964.082 10.176c0-1.789.441-3.438 1.322-4.948s2.077-2.706 3.587-3.587C6.502.759 8.151.319 9.939.319zm1.643 16.005v-2.439c0-.12-.039-.22-.116-.302a.375.375 0 0 0-.282-.122H8.72a.404.404 0 0 0-.295.129.404.404 0 0 0-.129.295v2.439c0 .111.043.209.129.295a.407.407 0 0 0 .295.128h2.464c.111 0 .205-.041.282-.122s.116-.182.116-.301zm-.026-4.416l.231-7.97a.25.25 0 0 0-.128-.231.48.48 0 0 0-.308-.103H8.527a.483.483 0 0 0-.308.103.252.252 0 0 0-.128.231l.218 7.97c0 .086.043.161.128.225a.503.503 0 0 0 .309.096h2.374c.12 0 .22-.032.302-.096a.322.322 0 0 0 .134-.225z" fill="#EF5062" fill-rule="evenodd"/></svg></svg>