<?xml version="1.0" encoding="utf-8"?>
<!-- Generator: Adobe Illustrator 18.1.0, SVG Export Plug-In . SVG Version: 6.00 Build 0)  -->
<!DOCTYPE svg PUBLIC "-//W3C//DTD SVG 1.1//EN" "http://www.w3.org/Graphics/SVG/1.1/DTD/svg11.dtd">
<svg version="1.1" id="Layer_1" xmlns="http://www.w3.org/2000/svg" xmlns:xlink="http://www.w3.org/1999/xlink" x="0px" y="0px"
	 viewBox="0 0 16 26.1" enable-background="new 0 0 16 26.1" xml:space="preserve">
<path fill="#F3786D" d="M8,0C3.6,0,0,3.6,0,8c0,1.5,0.4,2.8,1.1,4h0l0.8,1.5l1.5,3L8,26.1l6.4-12.9L15,12h0c0.4-0.6,0.6-1.3,0.8-2
	C15.9,9.4,16,8.7,16,8C16,3.6,12.5,0,8,0z M8,10.4c-1.9,0-3.4-1.5-3.4-3.4c0-1.9,1.5-3.4,3.4-3.4c1.9,0,3.4,1.5,3.4,3.4
	C11.4,8.9,9.9,10.4,8,10.4z"/>
</svg>
